<svg width="15" height="17" viewBox="0 0 19 20"  xmlns="http://www.w3.org/2000/svg">
<path fill="rgb(140, 127, 147)" d="M0.98 20C0.830667 20 0.690667 19.944 0.56 19.832C0.448 19.72 0.392 19.58 0.392 19.412C0.392 19.3373 0.410667 19.2533 0.448 19.16L7.196 1.1C7.252 0.913332 7.35467 0.754665 7.504 0.623999C7.672 0.474665 7.896 0.399999 8.176 0.399999H11.228C11.508 0.399999 11.7227 0.474665 11.872 0.623999C12.0213 0.754665 12.1333 0.913332 12.208 1.1L18.956 19.16C18.9747 19.2533 18.984 19.3373 18.984 19.412C18.984 19.58 18.928 19.72 18.816 19.832C18.704 19.944 18.5733 20 18.424 20H15.988C15.7267 20 15.5307 19.944 15.4 19.832C15.288 19.7013 15.2133 19.58 15.176 19.468L13.86 16.052H5.544L4.228 19.468C4.19067 19.58 4.10667 19.7013 3.976 19.832C3.864 19.944 3.67733 20 3.416 20H0.98ZM6.524 12.832H12.88L9.688 4.18L6.524 12.832Z" />
</svg>
