<svg width="15" height="17" viewBox="0 0 16 20" fill="none" xmlns="http://www.w3.org/2000/svg">
<path d="M0.856 20C0.669334 20 0.510667 19.9347 0.38 19.804C0.249333 19.6733 0.184 19.5147 0.184 19.328V1.1C0.184 0.894666 0.249333 0.726666 0.38 0.595999C0.510667 0.465332 0.669334 0.399999 0.856 0.399999H8.976C10.488 0.399999 11.72 0.633332 12.672 1.1C13.624 1.548 14.324 2.17333 14.772 2.976C15.2387 3.77867 15.472 4.712 15.472 5.776C15.472 6.48533 15.3413 7.11067 15.08 7.652C14.8373 8.17467 14.5293 8.604 14.156 8.94C13.8013 9.276 13.4467 9.53733 13.092 9.724C13.82 10.06 14.464 10.62 15.024 11.404C15.584 12.188 15.864 13.1213 15.864 14.204C15.864 15.324 15.612 16.3227 15.108 17.2C14.604 18.0773 13.8573 18.768 12.868 19.272C11.8787 19.7573 10.656 20 9.2 20H0.856ZM4.076 17.032H8.752C9.76 17.032 10.5253 16.7613 11.048 16.22C11.5707 15.66 11.832 14.988 11.832 14.204C11.832 13.3827 11.5613 12.7013 11.02 12.16C10.4973 11.6187 9.74133 11.348 8.752 11.348H4.076V17.032ZM4.076 8.436H8.472C9.46133 8.436 10.1987 8.20267 10.684 7.736C11.188 7.25067 11.44 6.62533 11.44 5.86C11.44 5.076 11.188 4.46933 10.684 4.04C10.1987 3.592 9.46133 3.368 8.472 3.368H4.076V8.436Z" fill="#626C7F"/>
</svg>
