<svg width="15" height="17" viewBox="0 0 18 21" fill="none" xmlns="http://www.w3.org/2000/svg">
<path d="M8.744 20.28C7.008 20.28 5.53333 19.9813 4.32 19.384C3.12533 18.768 2.21067 17.9 1.576 16.78C0.941333 15.6413 0.586667 14.2787 0.512 12.692C0.493333 11.9267 0.484 11.1053 0.484 10.228C0.484 9.35067 0.493333 8.51067 0.512 7.708C0.586667 6.14 0.941333 4.78667 1.576 3.648C2.22933 2.50933 3.15333 1.64133 4.348 1.044C5.56133 0.427999 7.02667 0.119999 8.744 0.119999C10.0133 0.119999 11.152 0.287999 12.16 0.623999C13.168 0.959999 14.0267 1.42667 14.736 2.024C15.4453 2.60267 15.996 3.284 16.388 4.068C16.78 4.852 16.9853 5.70133 17.004 6.616C17.0227 6.784 16.9667 6.924 16.836 7.036C16.724 7.148 16.584 7.204 16.416 7.204H13.756C13.5507 7.204 13.3827 7.15733 13.252 7.064C13.1213 6.952 13.028 6.77467 12.972 6.532C12.6733 5.3 12.16 4.46 11.432 4.012C10.704 3.564 9.79867 3.34 8.716 3.34C7.46533 3.34 6.46667 3.69467 5.72 4.404C4.97333 5.09467 4.572 6.24267 4.516 7.848C4.46 9.37867 4.46 10.9467 4.516 12.552C4.572 14.1573 4.97333 15.3147 5.72 16.024C6.46667 16.7147 7.46533 17.06 8.716 17.06C9.79867 17.06 10.704 16.836 11.432 16.388C12.16 15.9213 12.6733 15.0813 12.972 13.868C13.028 13.6067 13.1213 13.4293 13.252 13.336C13.3827 13.2427 13.5507 13.196 13.756 13.196H16.416C16.584 13.196 16.724 13.252 16.836 13.364C16.9667 13.476 17.0227 13.616 17.004 13.784C16.9853 14.6987 16.78 15.548 16.388 16.332C15.996 17.116 15.4453 17.8067 14.736 18.404C14.0267 18.9827 13.168 19.44 12.16 19.776C11.152 20.112 10.0133 20.28 8.744 20.28Z" fill="#626C7F"/>
</svg>
