<svg width="15" height="17" viewBox="0 0 17 20" fill="none" xmlns="http://www.w3.org/2000/svg">
<path d="M0.856 20C0.669334 20 0.510667 19.9347 0.38 19.804C0.249333 19.6733 0.184 19.5147 0.184 19.328V1.1C0.184 0.894666 0.249333 0.726666 0.38 0.595999C0.510667 0.465332 0.669334 0.399999 0.856 0.399999H7.688C9.57333 0.399999 11.1227 0.689332 12.336 1.268C13.568 1.84667 14.492 2.70533 15.108 3.844C15.7427 4.98267 16.0693 6.37333 16.088 8.016C16.1253 8.83733 16.144 9.56533 16.144 10.2C16.144 10.8347 16.1253 11.5533 16.088 12.356C16.0507 14.092 15.7333 15.5293 15.136 16.668C14.5387 17.788 13.6333 18.628 12.42 19.188C11.2253 19.7293 9.69467 20 7.828 20H0.856ZM4.076 16.78H7.688C8.73333 16.78 9.58267 16.6307 10.236 16.332C10.8893 16.0333 11.3653 15.5573 11.664 14.904C11.9813 14.232 12.1493 13.3547 12.168 12.272C12.1867 11.712 12.196 11.2267 12.196 10.816C12.2147 10.3867 12.2147 9.96667 12.196 9.556C12.196 9.12667 12.1867 8.64133 12.168 8.1C12.1307 6.56933 11.748 5.44 11.02 4.712C10.292 3.984 9.13467 3.62 7.548 3.62H4.076V16.78Z" fill="#626C7F"/>
</svg>
